<svg xmlns="http://www.w3.org/2000/svg" width="49" height="26" viewBox="0 0 49 26">
    <g fill="none" fill-rule="evenodd">
        <path fill="#DCEAFF" d="M37.5 12.5a6.5 6.5 0 1 1-13 0 6.5 6.5 0 0 1 13 0"/>
        <path stroke="#DBDBDB" stroke-linecap="round" stroke-width="3" d="M1.5 24.5h5M10.5 24.5h32"/>
        <path stroke="#DBDBDB" stroke-linecap="round" stroke-width="2" d="M38.5 19.5h4"/>
        <path stroke="#DBDBDB" d="M48 19a1.5 1.5 0 1 1-3 0 1.5 1.5 0 0 1 3 0z"/>
        <path stroke="#7F7F7F" stroke-linejoin="round" stroke-width="2" d="M31.5 23.5H13c-1.1 0-2-.9-2-2V5.25c0-1.1.9-2 2-2h18.5c1.1 0 2 .9 2 2V21.5c0 1.1-.9 2-2 2zM11 10h22.5"/>
        <path stroke="#0268F7" stroke-linecap="round" stroke-width="2" d="M16.625 1v4.5M27.875 1v4.5M22.25 1v4.5"/>
    </g>
</svg>
