<svg xmlns="http://www.w3.org/2000/svg" width="58" height="24" viewBox="0 0 58 24">
    <g fill="none" fill-rule="evenodd">
        <path stroke="#7F7F7F" stroke-linejoin="round" stroke-width="2" d="M21 7.75v13"/>
        <path fill="#DCEAFF" d="M50.999 9.168a6.5 6.5 0 1 1-12.997.165 6.5 6.5 0 0 1 12.997-.165"/>
        <path stroke="#0268F7" stroke-linecap="round" stroke-width="2" d="M14.5 7.75H44"/>
        <path stroke="#DBDBDB" stroke-linecap="round" stroke-width="3" d="M51 22.25h5M7 22.25h39"/>
        <path stroke="#DBDBDB" stroke-linecap="round" stroke-width="2" d="M1 17.25h4"/>
        <path stroke="#DBDBDB" d="M10.5 16.75a1.5 1.5 0 1 1-3 0 1.5 1.5 0 0 1 3 0z"/>
        <path stroke="#7F7F7F" stroke-linejoin="round" stroke-width="2" d="M42 21.25H16.5c-1.1 0-2-.9-2-2V3c0-1.1.9-2 2-2H42c1.1 0 2 .9 2 2v16.25c0 1.1-.9 2-2 2z"/>
        <path fill="#0268F7" d="M33.5 4.25a1 1 0 1 1-2 0 1 1 0 0 1 2 0M37 4.25a1 1 0 1 1-2 0 1 1 0 0 1 2 0M40.5 4.25a1 1 0 1 1-2 0 1 1 0 0 1 2 0"/>
    </g>
</svg>
