<svg xmlns="http://www.w3.org/2000/svg" width="16" height="16" viewBox="0 0 16 16">
    <g fill="#000" fill-opacity=".54" fill-rule="nonzero">
        <path d="M8.042 15.895A7.898 7.898 0 0 1 .147 8 7.898 7.898 0 0 1 8.042.105 7.898 7.898 0 0 1 15.937 8a7.898 7.898 0 0 1-7.895 7.895zm0-15.137a7.242 7.242 0 1 0 0 14.484c4 0 7.242-3.242 7.242-7.242-.02-4-3.263-7.242-7.242-7.242z"/>
        <g transform="translate(5.684 3.579)">
            <path d="M2.674 6.4H2.02v-.526c0-.821.442-1.6 1.137-2 .568-.337.884-.969.82-1.621A1.655 1.655 0 0 0 2.527.8c-.484-.042-.926.084-1.284.4a1.615 1.615 0 0 0-.547 1.221H.042c0-.653.274-1.284.758-1.705C1.284.295 1.937.063 2.59.147c1.052.127 1.915.969 2.02 2.021a2.276 2.276 0 0 1-1.157 2.253 1.636 1.636 0 0 0-.821 1.432l.042.547z"/>
            <circle cx="2.358" cy="8.042" r="1"/>
        </g>
    </g>
</svg>
