<svg xmlns="http://www.w3.org/2000/svg" xmlns:xlink="http://www.w3.org/1999/xlink" width="936" height="307" viewBox="0 0 936 307">
    <defs>
        <path id="a" d="M0 50.942h34.909V0H0z"/>
        <path id="c" d="M0 25.697h17.723V0H0z"/>
        <path id="e" d="M34.909.873H0V.436h34.909v.437z"/>
        <path id="f" d="M0 27.285h18.819V0H0z"/>
    </defs>
    <g fill="none" fill-rule="evenodd">
        <g stroke="#3B556B" stroke-linecap="round" stroke-linejoin="round" opacity=".2">
            <path d="M181.612 159.014h-22.604M181.612 169.996h-22.604M155.954 266.39h29.323V155.353l-29.323-19.523zM169.394 149.252h-10.386M181.612 178.537h-22.604M181.612 189.518h-22.604M181.612 199.28h-22.604M181.612 210.262h-22.604M181.612 218.803h-22.604M181.612 229.784h-22.604M181.612 240.766h-22.604M181.612 251.748h-22.604"/>
            <path d="M165.117 264.56h3.666v-7.321h-3.666z"/>
        </g>
        <g opacity=".3">
            <g transform="translate(33.163 254.51)">
                <path stroke="#3B556B" stroke-linecap="round" stroke-linejoin="round" d="M34.363 17.529c0 9.378-7.57 16.98-16.909 16.98C8.115 34.51.545 26.907.545 17.53c0-9.38 7.57-16.981 16.91-16.981 9.338 0 16.908 7.602 16.908 16.98z"/>
                <mask id="b" fill="#fff">
                    <use xlink:href="#a"/>
                </mask>
                <path stroke="#3B556B" stroke-linecap="round" stroke-linejoin="round" d="M16.363 47.108h2.182v-12.05h-2.182z" mask="url(#b)"/>
                <path stroke="#3B556B" stroke-linecap="round" stroke-linejoin="round" d="M10.363 50.395h14.182s-6.545-7.67-14.182 0z" mask="url(#b)"/>
            </g>
            <g stroke="#3B556B" stroke-linecap="round" stroke-linejoin="round">
                <path d="M3.49 306c-.643 0-1.163-.535-1.163-1.194v-35.827c0-.66.52-1.195 1.164-1.195.643 0 1.163.535 1.163 1.195v35.827c0 .659-.52 1.194-1.163 1.194zM6.4 264.202c0 1.649-1.302 2.985-2.91 2.985-1.606 0-2.908-1.336-2.908-2.985 0-1.65 1.302-2.986 2.909-2.986 1.607 0 2.909 1.336 2.909 2.986z"/>
            </g>
            <g transform="translate(14.836 279.819)">
                <path stroke="#3B556B" stroke-linecap="round" stroke-linejoin="round" d="M17.24 8.908c0 4.652-3.751 8.424-8.38 8.424-4.626 0-8.378-3.772-8.378-8.424C.482 4.256 4.234.485 8.861.485c4.628 0 8.38 3.77 8.38 8.423z"/>
                <mask id="d" fill="#fff">
                    <use xlink:href="#c"/>
                </mask>
                <path stroke="#3B556B" stroke-linecap="round" stroke-linejoin="round" d="M8.32 23.582h1.082v-5.978H8.32z" mask="url(#d)"/>
                <path stroke="#3B556B" stroke-linecap="round" stroke-linejoin="round" d="M5.348 25.212h7.027s-3.243-3.804-7.027 0z" mask="url(#d)"/>
            </g>
        </g>
        <g stroke="#3B556B" stroke-linecap="round" stroke-linejoin="round" opacity=".4">
            <path d="M77.221 266.973h58.302V124.341H77.221zM73.334 124.341h68.02v-7.71h-68.02zM102.485 116.631h27.208v-15.42h-27.208z"/>
            <path d="M83.051 141.688h13.604v-11.565H83.051zM100.542 141.688h13.604v-11.565h-13.604zM118.032 141.688h13.604v-11.565h-13.604zM83.051 159.035h13.604v-11.564H83.051zM100.542 159.035h13.604v-11.564h-13.604zM118.032 159.035h13.604v-11.564h-13.604zM83.051 176.382h13.604v-11.564H83.051zM100.542 176.382h13.604v-11.564h-13.604zM118.032 176.382h13.604v-11.564h-13.604zM83.051 193.73h13.604v-11.565H83.051zM100.542 193.73h13.604v-11.565h-13.604zM118.032 193.73h13.604v-11.565h-13.604zM83.051 211.077h13.604v-11.565H83.051zM100.542 211.077h13.604v-11.565h-13.604zM118.032 211.077h13.604v-11.565h-13.604zM83.051 228.424h13.604v-11.565H83.051zM100.542 228.424h13.604v-11.565h-13.604zM118.032 228.424h13.604v-11.565h-13.604zM111.23 264.082h5.83v-11.565h-5.83zM120.948 264.082h5.83v-11.565h-5.83z"/>
        </g>
        <g opacity=".3">
            <path stroke="#3B556B" stroke-linecap="round" stroke-linejoin="round" d="M134.834 65.694s0-9.6 10.473-7.855c0 0-1.746-13.963 14.836-10.472 0 0 2.618-6.982 9.6-5.237 0 0-3.491-11.345 9.6-15.708 13.09-4.364 15.708 6.981 15.708 6.981M168.434 66.13h20.072"/>
        </g>
        <path stroke="#000" stroke-linecap="round" d="M30.109 205.202h22.707" opacity=".2"/>
        <g>
            <g stroke="#3B556B" stroke-linecap="round" stroke-linejoin="round" opacity=".2">
                <path d="M856.788 192.45h-21.944M856.788 203.183h-21.944M831.879 297.404h28.467V188.87L831.88 169.79zM844.926 182.908h-10.082M856.788 211.532h-21.944M856.788 222.266h-21.944M856.788 231.807h-21.944M856.788 242.541h-21.944M856.788 250.89h-21.944M856.788 261.624h-21.944M856.788 272.358h-21.944M856.788 283.092h-21.944"/>
                <path d="M840.775 295.615h3.558v-7.156h-3.558z"/>
            </g>
            <g stroke="#3B556B" stroke-linecap="round" stroke-linejoin="round" opacity=".3">
                <path d="M905.99 305.073c.578 0 1.045-.481 1.045-1.074v-32.24c0-.593-.467-1.074-1.045-1.074-.578 0-1.045.481-1.045 1.074V304c0 .593.467 1.074 1.045 1.074zM903.376 267.46c0 1.485 1.17 2.687 2.614 2.687s2.614-1.202 2.614-2.686-1.17-2.687-2.614-2.687-2.614 1.203-2.614 2.687z"/>
            </g>
            <g stroke="#3B556B" stroke-linecap="round" stroke-linejoin="round" opacity=".312">
                <path d="M779.127 297.267h36.405V67.21h-36.405zM785.68 66.477l4.369-5.86s1.456-13.189 8.737-16.12c0 0 7.281 7.327 7.281 14.654l4.369 7.326H785.68zM798.058 43.765V1.27M780.583 74.537h34.95M788.593 81.13h26.94M788.593 95.784h26.94M788.593 110.437h26.94M788.593 125.09h26.94M788.593 139.744h26.94M749.275 169.05h26.94M749.275 182.239h26.94M788.593 154.397h26.94M788.593 166.12h26.94M788.593 180.773h26.94M788.593 195.427h26.94M788.593 210.08h26.94M788.593 224.733h26.94M788.593 239.387h26.94M788.593 251.11h26.94M788.593 265.763h26.94M788.593 280.416h26.94"/>
                <path d="M776.943 141.21l-32.036 23.445V298h34.948M763.837 157.328h12.378M749.275 192.496h26.94M749.275 205.684h26.94M749.275 217.407h26.94M749.275 230.595h26.94M749.275 240.852h26.94M749.275 254.04h26.94M749.275 267.228h26.94M749.275 280.416h26.94"/>
                <path d="M764.565 295.802h4.369v-8.792h-4.369zM771.846 295.802h4.369v-8.792h-4.369zM800.97 295.802h4.369v-8.792h-4.369zM808.251 295.802h4.369v-8.792h-4.369z"/>
            </g>
            <path stroke="#3B556B" stroke-linecap="round" stroke-linejoin="round" d="M685.94 29.958s-2.454-15.538 13.084-13.903c0 0 1.635-8.178 12.267-6.542 0 0 9.813.818 8.995 13.902 0 0 6.543-1.635 8.178 4.907 0 0 7.36-3.271 11.45 1.636 0 0 3.27 2.453 1.635 7.36 0 0 9.813-3.271 10.63 7.36" opacity=".3"/>
            <path stroke="#000" stroke-linecap="round" d="M721.475 44.214h24.111M702.941 50.701h24.112M841.943 87.768h24.11" opacity=".2"/>
            <g opacity=".3" transform="translate(916.54 278.2)">
                <path stroke="#3B556B" stroke-linecap="round" stroke-linejoin="round" d="M18.307 9.46c0 4.938-3.984 8.944-8.899 8.944-4.912 0-8.896-4.006-8.896-8.945C.512 4.52 4.496.515 9.408.515c4.915 0 8.899 4.004 8.899 8.944z"/>
                <mask id="g" fill="#fff">
                    <use xlink:href="#f"/>
                </mask>
                <path stroke="#3B556B" stroke-linecap="round" stroke-linejoin="round" d="M8.835 25.04h1.148v-6.348H8.835z" mask="url(#g)"/>
                <path stroke="#3B556B" stroke-linecap="round" stroke-linejoin="round" d="M5.678 26.77h7.463s-3.445-4.039-7.463 0z" mask="url(#g)"/>
            </g>
        </g>
    </g>
</svg>
