<svg xmlns="http://www.w3.org/2000/svg" width="48" height="27" viewBox="0 0 48 27">
    <g fill="none" fill-rule="evenodd">
        <path fill="#D6E7FF" d="M44 10.875a6.5 6.5 0 1 1-13 0 6.5 6.5 0 0 1 13 0"/>
        <path stroke="#DBDBDB" stroke-linecap="round" stroke-width="3" d="M7 24.875h5M16 24.875h30"/>
        <path stroke="#DBDBDB" stroke-linecap="round" stroke-width="2" d="M8 20.875h4"/>
        <path stroke="#DBDBDB" d="M3.5 24.375a1.5 1.5 0 1 1-3 0 1.5 1.5 0 0 1 3 0z"/>
        <path fill="#0268F7" d="M40.484.375h-7.253c-.584.025-1.14.26-1.562.661l-.95.967a.47.47 0 0 0 .015.656.475.475 0 0 0 .66.008l.967-.973c.242-.215.547-.346.87-.374h7.253a.251.251 0 0 1 .25.248v7.243c-.025.328-.16.639-.383.884l-10.21 10.076a.273.273 0 0 1-.374 0l-1.92-1.911a.475.475 0 0 0-.659.011.472.472 0 0 0-.012.656l1.92 1.911a1.223 1.223 0 0 0 1.705.013l10.211-10.076c.41-.425.65-.985.671-1.574V1.559A1.199 1.199 0 0 0 40.484.375"/>
        <path stroke="#0268F7" stroke-width=".75" d="M40.484.375h-7.253c-.584.025-1.14.26-1.562.661l-.95.967a.47.47 0 0 0 .015.656.475.475 0 0 0 .66.008l.967-.973c.242-.215.547-.346.87-.374h7.253a.251.251 0 0 1 .25.248v7.243c-.025.328-.16.639-.383.884l-10.21 10.076a.273.273 0 0 1-.374 0l-1.92-1.911a.475.475 0 0 0-.659.011.472.472 0 0 0-.012.656l1.92 1.911a1.223 1.223 0 0 0 1.705.013l10.211-10.076c.41-.425.65-.985.671-1.574V1.559A1.199 1.199 0 0 0 40.484.375z"/>
        <path fill="#7F7F7F" d="M37.974 5.18c.6 0 1.088-.485 1.088-1.083s-.487-1.083-1.088-1.083c-.602 0-1.09.485-1.09 1.083s.488 1.083 1.09 1.083"/>
        <path stroke="#7F7F7F" d="M37.974 5.18c.6 0 1.088-.485 1.088-1.083s-.487-1.083-1.088-1.083c-.602 0-1.09.485-1.09 1.083s.488 1.083 1.09 1.083z"/>
        <path fill="#7F7F7F" d="M37.974 5.18c.6 0 1.088-.485 1.088-1.083s-.487-1.083-1.088-1.083c-.602 0-1.09.485-1.09 1.083s.488 1.083 1.09 1.083"/>
        <path stroke="#7F7F7F" d="M37.974 5.18c.6 0 1.088-.485 1.088-1.083s-.487-1.083-1.088-1.083c-.602 0-1.09.485-1.09 1.083s.488 1.083 1.09 1.083z"/>
        <path fill="#7F7F7F" d="M31.504 11.71V4.468a1.19 1.19 0 0 0-.351-.855 1.204 1.204 0 0 0-.857-.35h-7.244a2.421 2.421 0 0 0-1.566.66L11.335 14.125a1.212 1.212 0 0 0 .02 1.678l7.553 7.557a1.226 1.226 0 0 0 1.708 0l10.218-10.076c.409-.425.649-.985.67-1.574zm-.948 0a1.5 1.5 0 0 1-.383.885L19.958 22.67a.272.272 0 0 1-.37 0l-7.563-7.519a.267.267 0 0 1 0-.365l10.14-10.205c.247-.218.559-.35.887-.374h7.244a.251.251 0 0 1 .25.248l.01 7.255z"/>
        <path stroke="#7F7F7F" d="M31.504 11.71V4.468a1.19 1.19 0 0 0-.351-.855 1.204 1.204 0 0 0-.857-.35h-7.244a2.421 2.421 0 0 0-1.566.66L11.335 14.125a1.212 1.212 0 0 0 .02 1.678l7.553 7.557a1.226 1.226 0 0 0 1.708 0l10.218-10.076c.409-.425.649-.985.67-1.574zm-.948 0a1.5 1.5 0 0 1-.383.885L19.958 22.67a.272.272 0 0 1-.37 0l-7.563-7.519a.267.267 0 0 1 0-.365l10.14-10.205c.247-.218.559-.35.887-.374h7.244a.251.251 0 0 1 .25.248l.01 7.255z"/>
        <path fill="#7F7F7F" d="M31.504 11.71V4.468a1.19 1.19 0 0 0-.351-.855 1.204 1.204 0 0 0-.857-.35h-7.244a2.421 2.421 0 0 0-1.566.66L11.335 14.125a1.212 1.212 0 0 0 .02 1.678l7.553 7.557a1.226 1.226 0 0 0 1.708 0l10.218-10.076c.409-.425.649-.985.67-1.574zm-.948 0a1.5 1.5 0 0 1-.383.885L19.958 22.67a.272.272 0 0 1-.37 0l-7.563-7.519a.267.267 0 0 1 0-.365l10.14-10.205c.247-.218.559-.35.887-.374h7.244a.251.251 0 0 1 .25.248l.01 7.255z"/>
        <path stroke="#7F7F7F" d="M31.504 11.71V4.468a1.19 1.19 0 0 0-.351-.855 1.204 1.204 0 0 0-.857-.35h-7.244a2.421 2.421 0 0 0-1.566.66L11.335 14.125a1.212 1.212 0 0 0 .02 1.678l7.553 7.557a1.226 1.226 0 0 0 1.708 0l10.218-10.076c.409-.425.649-.985.67-1.574zm-.948 0a1.5 1.5 0 0 1-.383.885L19.958 22.67a.272.272 0 0 1-.37 0l-7.563-7.519a.267.267 0 0 1 0-.365l10.14-10.205c.247-.218.559-.35.887-.374h7.244a.251.251 0 0 1 .25.248l.01 7.255z"/>
        <path fill="#7F7F7F" d="M27.791 8.067c.601 0 1.088-.485 1.088-1.083 0-.599-.487-1.084-1.088-1.084-.602 0-1.089.485-1.089 1.084 0 .598.487 1.083 1.089 1.083"/>
        <path stroke="#7F7F7F" d="M27.791 8.067c.601 0 1.088-.485 1.088-1.083 0-.599-.487-1.084-1.088-1.084-.602 0-1.089.485-1.089 1.084 0 .598.487 1.083 1.089 1.083z"/>
        <path fill="#7F7F7F" d="M27.791 8.067c.601 0 1.088-.485 1.088-1.083 0-.599-.487-1.084-1.088-1.084-.602 0-1.089.485-1.089 1.084 0 .598.487 1.083 1.089 1.083"/>
        <path stroke="#7F7F7F" d="M27.791 8.067c.601 0 1.088-.485 1.088-1.083 0-.599-.487-1.084-1.088-1.084-.602 0-1.089.485-1.089 1.084 0 .598.487 1.083 1.089 1.083z"/>
    </g>
</svg>
