<svg xmlns="http://www.w3.org/2000/svg" width="52" height="26" viewBox="0 0 52 26">
    <g fill="none" fill-rule="evenodd">
        <g stroke="#DBDBDB" stroke-linecap="round" stroke-width="3">
            <path d="M1.5 24.5h5M10.5 24.5h40"/>
        </g>
        <path stroke="#DBDBDB" stroke-linecap="round" stroke-width="2" d="M41.5 19.5h4"/>
        <path stroke="#DBDBDB" d="M8 19a1.5 1.5 0 1 1-3 0 1.5 1.5 0 0 1 3 0z"/>
        <path fill="#D6E7FF" d="M32.5 6.5a6.5 6.5 0 1 1-13 0 6.5 6.5 0 0 1 13 0"/>
        <path stroke="#7F7F7F" stroke-linejoin="round" stroke-width="2" d="M10.6 23c.392-5.248 4.817-9.398 10.143-9.398 5.326 0 9.75 4.15 10.142 9.398H10.6z"/>
        <path stroke="#7F7F7F" stroke-linejoin="round" stroke-width="2" d="M30.885 23c-.117-1.958-.705-3.72-1.723-5.287 1.018-.548 2.115-.979 3.328-.979 3.603 0 6.619 2.742 7.01 6.266h-8.615z"/>
        <path stroke="#0268F7" stroke-width="2" d="M25.833 6.14a5.09 5.09 0 1 1-10.181 0 5.09 5.09 0 0 1 10.181 0z"/>
        <path stroke="#7F7F7F" stroke-width="2" d="M35.82 10.644a3.33 3.33 0 1 1-6.659 0 3.33 3.33 0 0 1 6.658 0z"/>
    </g>
</svg>
