<svg xmlns="http://www.w3.org/2000/svg" width="17" height="17" viewBox="0 0 17 17">
    <g fill="#000" fill-rule="nonzero" opacity=".54">
        <path d="M.916 10.957c0 1.376.54 2.645 1.51 3.616a5.109 5.109 0 0 0 3.617 1.511c1.35 0 2.645-.54 3.616-1.51l1.134-1.134a1.075 1.075 0 0 0 0-1.539 1.075 1.075 0 0 0-1.538 0L8.12 13.035a2.915 2.915 0 0 1-2.105.863c-.81 0-1.538-.296-2.105-.863a2.915 2.915 0 0 1-.863-2.105c0-.783.296-1.538.863-2.105L5.045 7.69a1.075 1.075 0 0 0 0-1.538 1.075 1.075 0 0 0-1.539 0l-1.08 1.188a5.062 5.062 0 0 0-1.51 3.616zM12.709 8.474a1.075 1.075 0 0 0 0 1.538c.216.216.486.324.756.324s.54-.108.755-.324l1.134-1.133a5.109 5.109 0 0 0 1.511-3.616c0-1.377-.54-2.645-1.511-3.617A5.109 5.109 0 0 0 11.737.135c-1.349 0-2.644.54-3.616 1.511L6.988 2.78a1.075 1.075 0 0 0 0 1.538 1.075 1.075 0 0 0 1.538 0l1.133-1.134a2.915 2.915 0 0 1 2.105-.863c.81 0 1.539.297 2.105.863.567.567.864 1.296.864 2.106a2.96 2.96 0 0 1-.864 2.105l-1.16 1.079z"/>
        <path d="M10.037 5.424L6.232 9.23a1.075 1.075 0 0 0 0 1.538c.216.216.486.324.756.324s.54-.108.755-.324l3.806-3.805a1.075 1.075 0 0 0 0-1.539c-.405-.431-1.08-.431-1.512 0z"/>
    </g>
</svg>
