<svg xmlns="http://www.w3.org/2000/svg" xmlns:xlink="http://www.w3.org/1999/xlink" width="35" height="25" viewBox="0 0 35 25">
    <defs>
        <path id="a" d="M3.789.706H1.331a.95.95 0 0 0-.937.957.95.95 0 0 0 .937.956h2.458c1.732 0 3.206 1.221 3.627 2.871H1.331a.951.951 0 0 0-.937.957.95.95 0 0 0 .937.958h6.085c-.421 1.65-1.872 2.871-3.627 2.871H1.331a.976.976 0 0 0-.843.526.972.972 0 0 0 .094 1.005l7.138 9.569c.189.24.468.384.749.384a.991.991 0 0 0 .562-.192c.421-.311.491-.933.188-1.34L3.227 12.19h.562c2.785 0 5.078-2.082 5.547-4.785h2.995a.95.95 0 0 0 .936-.958.95.95 0 0 0-.936-.957H9.336a5.731 5.731 0 0 0-1.357-2.871h4.352c.516 0 .936-.43.936-.956a.948.948 0 0 0-.936-.957H3.789z"/>
    </defs>
    <g fill="none" fill-rule="evenodd">
        <path stroke="#DBDBDB" stroke-linecap="round" stroke-width="3" d="M2.268 22.93h5M11.268 22.93h22"/>
        <path stroke="#DBDBDB" stroke-linecap="round" stroke-width="2" d="M22.267 17.93h4"/>
        <path stroke="#DBDBDB" d="M31.767 17.43a1.5 1.5 0 1 1-3 0 1.5 1.5 0 0 1 3 0z"/>
        <path fill="#DCEAFF" d="M28.267 6.93a6.5 6.5 0 1 1-13 0 6.5 6.5 0 0 1 13 0"/>
        <path fill="#7F7F7F" d="M20.47 22.43c.187 0 .397-.073.562-.192.42-.31.49-.934.187-1.34l-5.992-8.039h.562c2.785 0 5.078-2.08 5.547-4.785h2.995a.95.95 0 0 0 .937-.957.95.95 0 0 0-.937-.957h-2.995a5.723 5.723 0 0 0-1.357-2.87h4.352a.95.95 0 0 0 .937-.958.95.95 0 0 0-.937-.957h-11a.95.95 0 0 0-.936.957.95.95 0 0 0 .936.957h2.458c1.732 0 3.206 1.22 3.627 2.871H13.33a.95.95 0 0 0-.936.957.95.95 0 0 0 .936.957h6.085c-.421 1.651-1.872 2.871-3.627 2.871H13.33a.975.975 0 0 0-.842.526.97.97 0 0 0 .093 1.005l7.139 9.57a.97.97 0 0 0 .749.383"/>
        <g transform="translate(12 .67)">
            <mask id="b" fill="#fff">
                <use xlink:href="#a"/>
            </mask>
            <path fill="#7F7F7F" d="M-754 1696h937.355V-503.672H-754z" mask="url(#b)"/>
        </g>
        <path stroke="#0268F7" stroke-linecap="round" stroke-width="2" d="M13.268 7.43h11"/>
    </g>
</svg>
