<svg xmlns="http://www.w3.org/2000/svg" xmlns:xlink="http://www.w3.org/1999/xlink" width="621" height="38" viewBox="0 0 621 38">
    <defs>
        <path id="a" d="M0 37.76h620.258V0H0z"/>
    </defs>
    <g fill="none" fill-rule="evenodd">
        <path stroke="#E8E8E8" stroke-linecap="round" stroke-width="3" d="M28.89 36.007h17.5-17.5zM1.5 35.605h22.572M52.139 36.07H78.43M272.035 36.007h-17.5M211.061 35.52h-32.209M413.892 35.52h32.399M248.047 35.52h-32.21M309.443 36.26h-24.812M84.686 36.07h47.004M137.946 36.26h24.812M335.506 36.071H314.22M369.139 36.07h-23.851M377.275 35.605h22.572"/>
        <path fill="#BABABA" d="M11.475 19.584v-3.465a.552.552 0 0 0-1.101 0v3.465a.552.552 0 0 0 1.1 0M15.049 20.794v-3.492a.551.551 0 0 0-1.1 0v3.492a.551.551 0 0 0 1.1 0M7.9 20.794v-3.492a.551.551 0 0 0-1.1 0v3.492a.551.551 0 0 0 1.1 0M4.352 27.477V24.56h13.173v2.916c0 3.63-2.943 6.6-6.601 6.6-3.657 0-6.572-2.97-6.572-6.6zm15.758-.386a1.596 1.596 0 0 1 0 3.19h-2.035c.357-.88.549-1.842.549-2.831v-.386h1.486v.027zM3.225 34.6c0 .303.247.55.55.55h14.107c.302 0 .55-.248.55-.55a.552.552 0 0 0-.55-.55h-2.998c1.073-.66 2.008-1.568 2.64-2.668h2.586a2.699 2.699 0 0 0 2.694-2.695 2.7 2.7 0 0 0-2.694-2.695h-1.486v-1.98a.55.55 0 0 0-.55-.55H3.803a.552.552 0 0 0-.55.55v3.466a7.659 7.659 0 0 0 3.74 6.6H3.776a.511.511 0 0 0-.55.522zM31.955 28.305c-.569.025-.73.61-.47 1 1.153 1.726 3.084 2.87 5.268 2.87 2.182 0 4.115-1.144 5.267-2.87a.666.666 0 0 0-.174-.893c-.282-.188-.712-.107-.9.175-.93 1.393-2.459 2.298-4.193 2.298-1.735 0-3.262-.905-4.194-2.298-.174-.205-.397-.295-.604-.282m8.453-6.021a1.29 1.29 0 1 0 0 2.58 1.29 1.29 0 0 0 0-2.58m-7.31 0a1.29 1.29 0 1 0 0 2.58 1.29 1.29 0 0 0 0-2.58m3.655-4.515a8.59 8.59 0 0 1 8.6 8.6 8.59 8.59 0 0 1-8.6 8.6 8.592 8.592 0 0 1-8.602-8.6c0-4.757 3.844-8.6 8.602-8.6m0-1.29c-5.455 0-9.892 4.435-9.892 9.89 0 5.456 4.437 9.89 9.892 9.89 5.455 0 9.89-4.434 9.89-9.89 0-5.455-4.435-9.89-9.89-9.89M268.366 28.587c-.932 1.393-2.458 2.298-4.193 2.298-1.735 0-3.262-.905-4.193-2.298-.188-.282-.619-.363-.9-.175a.667.667 0 0 0-.175.894c1.152 1.724 3.085 2.869 5.268 2.869s4.115-1.145 5.268-2.87c.26-.39.1-.975-.47-1-.208-.013-.43.077-.605.282m-9.139-5.013a1.29 1.29 0 1 0 2.58 0 1.29 1.29 0 0 0-2.58 0m7.311 0a1.29 1.29 0 1 0 2.581-.001 1.29 1.29 0 0 0-2.58 0m6.235 2.796a8.592 8.592 0 0 1-8.6 8.6 8.591 8.591 0 0 1-8.602-8.6 8.59 8.59 0 0 1 8.601-8.6 8.59 8.59 0 0 1 8.601 8.6m-18.492 0c0 5.455 4.436 9.89 9.891 9.89s9.891-4.435 9.891-9.89c0-5.455-4.436-9.89-9.89-9.89-5.456 0-9.892 4.435-9.892 9.89M54.731 33.687c.124.562.624.963 1.2.96h17.39a1.23 1.23 0 0 0 .531-2.339l-.626-.285a.714.714 0 0 1-.402-.663v-2.479a14.812 14.812 0 0 0-5.074-11.11h-6.237a14.8 14.8 0 0 0-5.068 11.113v2.48a.713.713 0 0 1-.406.641l-.625.286c-.53.245-.813.83-.677 1.396h-.006zm.286-4.806a16.23 16.23 0 0 1 5.771-12.37.718.718 0 0 1 .46-.168h6.764c.168 0 .331.06.46.168a16.23 16.23 0 0 1 5.774 12.37v2.031l.22.105a2.658 2.658 0 0 1-1.142 5.058H55.936a2.659 2.659 0 0 1-1.142-5.058l.22-.105.003-2.03zm11.93-13.903a.714.714 0 0 0 .985-.18l2.46-3.5a.717.717 0 0 0-.133-.963c-3.158-2.622-8.103-2.619-11.258.008a.714.714 0 0 0-.129.96l2.46 3.495a.713.713 0 0 0 1.167-.819l-2.063-2.933a7.629 7.629 0 0 1 8.39 0l-2.062 2.94a.715.715 0 0 0 .175.992h.008zm-5.14 9.798a2.612 2.612 0 0 1 2.111-2.57v-.554a.713.713 0 1 1 1.427 0v.57c.853.22 1.553.825 1.894 1.637a.715.715 0 0 1-1.317.551 1.393 1.393 0 0 0-1.288-.857c-.674 0-1.396.383-1.396 1.223 0 .22 0 .882 1.556 1.24h.023c2.284.532 2.642 1.872 2.642 2.623a2.613 2.613 0 0 1-2.11 2.57v.571a.714.714 0 1 1-1.429 0v-.572a2.811 2.811 0 0 1-1.893-1.635.714.714 0 1 1 1.316-.55c.218.518.728.856 1.291.855.674 0 1.397-.382 1.397-1.222 0-.22 0-.882-1.557-1.24h-.022c-2.302-.547-2.645-1.887-2.645-2.64zM315.852 32.948c.124.562.623.962 1.199.96h17.39a1.23 1.23 0 0 0 .53-2.339l-.624-.286a.713.713 0 0 1-.402-.662v-2.479a14.816 14.816 0 0 0-5.074-11.11h-6.238a14.81 14.81 0 0 0-5.068 11.113v2.48a.713.713 0 0 1-.405.641l-.625.286c-.53.245-.813.83-.677 1.396h-.006zm.285-4.806a16.232 16.232 0 0 1 5.772-12.37.72.72 0 0 1 .459-.169h6.765a.72.72 0 0 1 .459.17 16.231 16.231 0 0 1 5.775 12.37v2.03l.219.105a2.658 2.658 0 0 1-1.142 5.057h-17.387a2.657 2.657 0 0 1-1.143-5.057l.22-.105.003-2.03zm11.93-13.903a.713.713 0 0 0 .986-.18l2.458-3.5a.718.718 0 0 0-.131-.964c-3.158-2.62-8.104-2.618-11.26.01a.712.712 0 0 0-.127.958l2.458 3.495a.714.714 0 0 0 1.168-.819l-2.062-2.933a7.629 7.629 0 0 1 8.39 0l-2.062 2.94a.715.715 0 0 0 .174.993h.009zm-5.14 9.797a2.613 2.613 0 0 1 2.11-2.57v-.554a.714.714 0 1 1 1.428 0v.571a2.81 2.81 0 0 1 1.894 1.636.715.715 0 0 1-1.317.552 1.39 1.39 0 0 0-1.288-.857c-.673 0-1.395.382-1.395 1.222 0 .22 0 .883 1.556 1.24h.023c2.284.533 2.64 1.872 2.64 2.623a2.613 2.613 0 0 1-2.11 2.57v.572a.714.714 0 0 1-1.428 0v-.572a2.813 2.813 0 0 1-1.892-1.636.715.715 0 0 1 1.3-.59l.016.04c.218.52.727.856 1.29.855.674 0 1.397-.382 1.397-1.22 0-.22 0-.884-1.556-1.24h-.023c-2.302-.549-2.644-1.888-2.644-2.642zM212.626 3.911c0 .65-3.334 2.165-9.525 2.165-6.193 0-9.527-1.516-9.527-2.165s3.334-2.165 9.527-2.165c6.191 0 9.525 1.516 9.525 2.165zM193.574 19.24v-.13c.087.087.173.13.303.174-.086-.044-.216-.044-.303-.044zm-3.464 1.56c6.192 0 9.527 1.514 9.527 2.165 0 .65-3.335 2.165-9.527 2.165-6.192 0-9.526-1.516-9.526-2.165 0-.65 3.334-2.165 9.526-2.165zm-9.526 10.824v-2.12c2.122 1.168 5.933 1.687 9.526 1.687 3.594 0 7.405-.519 9.527-1.688v2.121c0 .65-3.335 2.165-9.527 2.165-6.192 0-9.526-1.515-9.526-2.165zm20.784-3.94v-2.598c.564.044 1.169.044 1.733.044 3.593 0 7.404-.52 9.525-1.69v2.122c0 .65-3.334 2.165-9.525 2.165-.564 0-1.169 0-1.733-.043zm-20.784-2.51c2.122 1.168 5.933 1.687 9.526 1.687 3.594 0 7.405-.519 9.527-1.688v2.121c0 .65-3.335 2.165-9.527 2.165-6.192 0-9.526-1.515-9.526-2.165v-2.12zm32.042-6.064v2.122c0 .65-3.334 2.165-9.525 2.165-.564 0-1.169 0-1.733-.043v-.389c0-.996-.779-1.776-2.035-2.382 1.213.13 2.512.217 3.768.217 3.593 0 7.404-.52 9.525-1.69zm0-4.33v2.122c0 .65-3.334 2.165-9.525 2.165-6.193 0-9.527-1.515-9.527-2.165V14.78c2.122 1.17 5.933 1.69 9.527 1.69 3.593 0 7.404-.52 9.525-1.69zm0-4.33v2.122c0 .65-3.334 2.165-9.525 2.165-6.193 0-9.527-1.515-9.527-2.165V10.45c2.122 1.17 5.933 1.69 9.527 1.69 3.593 0 7.404-.52 9.525-1.69zm-19.052-4.33c2.122 1.17 5.933 1.69 9.527 1.69 3.593 0 7.404-.52 9.525-1.69v2.122c0 .65-3.334 2.165-9.525 2.165-6.193 0-9.527-1.516-9.527-2.165V6.12zm20.784 19.442V3.911c0-2.685-5.845-3.896-11.257-3.896-5.413 0-11.259 1.211-11.259 3.896V19.11c-.563-.043-1.169-.043-1.732-.043-5.413 0-11.257 1.212-11.257 3.898v8.66c0 2.684 5.844 3.896 11.257 3.896 5.412 0 11.258-1.212 11.258-3.897v-2.208a23.31 23.31 0 0 0 1.733.043c5.412 0 11.257-1.212 11.257-3.897zM427.6 9.486c4.773 0 7.343 1.168 7.343 1.67 0 .5-2.57 1.668-7.343 1.668-4.772 0-7.343-1.169-7.343-1.669s2.57-1.669 7.343-1.669zm7.109 13.518a.54.54 0 0 0 .234-.134v.1c-.067 0-.166 0-.234.034zm10.247 2.836c0 .501-2.57 1.67-7.342 1.67-4.774 0-7.344-1.169-7.344-1.67 0-.5 2.57-1.668 7.344-1.668 4.772 0 7.342 1.168 7.342 1.668zm-7.342 8.345c-4.774 0-7.344-1.168-7.344-1.669v-1.635c1.636.901 4.573 1.301 7.344 1.301 2.769 0 5.707-.4 7.342-1.3v1.634c0 .501-2.57 1.67-7.342 1.67zM427.6 29.512c-4.772 0-7.343-1.168-7.343-1.669v-1.635c1.636.901 4.572 1.301 7.343 1.301.434 0 .9 0 1.335-.033v2.003c-.434.033-.901.033-1.335.033zm17.356-.334c0 .501-2.57 1.67-7.342 1.67-4.774 0-7.344-1.169-7.344-1.67v-1.635c1.636.901 4.573 1.301 7.344 1.301 2.769 0 5.707-.4 7.342-1.3v1.634zM427.6 24.172c.968 0 1.97-.067 2.904-.167-.968.467-1.57 1.068-1.57 1.835v.301c-.433.033-.9.033-1.334.033-4.772 0-7.343-1.167-7.343-1.668V22.87c1.636.901 4.572 1.302 7.343 1.302zm0-3.338c2.77 0 5.708-.4 7.343-1.3v1.634c0 .501-2.57 1.67-7.343 1.67-4.772 0-7.343-1.169-7.343-1.67v-1.635c1.636.9 4.572 1.301 7.343 1.301zm0-3.337c2.77 0 5.708-.4 7.343-1.302v1.635c0 .501-2.57 1.67-7.343 1.67-4.772 0-7.343-1.169-7.343-1.67v-1.635c1.636.901 4.572 1.302 7.343 1.302zm7.343-3.004c0 .5-2.57 1.67-7.343 1.67-4.772 0-7.343-1.17-7.343-1.67v-1.636c1.636.901 4.572 1.302 7.343 1.302 2.77 0 5.708-.4 7.343-1.302v1.636zM427.6 30.847c.434 0 .9 0 1.335-.033v1.702c0 2.07 4.506 3.004 8.679 3.004 4.172 0 8.677-.934 8.677-3.004V25.84c0-2.069-4.505-3.003-8.677-3.003-.435 0-.902 0-1.335.033V11.155c0-2.069-4.507-3.004-8.68-3.004-4.171 0-8.677.935-8.677 3.004v16.688c0 2.07 4.506 3.004 8.678 3.004zM226.49 24.805c0-.705.572-1.276 1.276-1.276h13.11c.704 0 1.275.57 1.275 1.276v8.122c0 .705-.57 1.276-1.276 1.276h-13.109a1.276 1.276 0 0 1-1.276-1.276v-8.122zm9.873-2.811h-4.085v-.96c0-.141.114-.255.256-.255h3.574c.141 0 .255.114.255.255v.96zm-11.404 2.81v8.123a2.808 2.808 0 0 0 2.807 2.809h13.11a2.809 2.809 0 0 0 2.807-2.81v-8.123a2.808 2.808 0 0 0-2.808-2.81h-2.98v-.96c0-.986-.8-1.786-1.787-1.786h-3.574c-.987 0-1.787.8-1.787 1.787v.962h-2.98a2.808 2.808 0 0 0-2.808 2.809z"/>
        <path fill="#BABABA" d="M232.084 25.88a.766.766 0 0 0 0 1.53h1.471v1.472a.766.766 0 0 0 1.532 0V27.41h1.471a.766.766 0 0 0 0-1.531h-1.471v-1.471a.765.765 0 1 0-1.532 0v1.47h-1.471zM288.33 25.904a3.686 3.686 0 0 0 3.698 3.698 3.687 3.687 0 0 0 3.7-3.698 3.687 3.687 0 0 0-3.7-3.698 3.686 3.686 0 0 0-3.698 3.698m8.877 0a5.19 5.19 0 0 1-5.179 5.178 5.189 5.189 0 0 1-5.177-5.178 5.188 5.188 0 0 1 5.177-5.178 5.189 5.189 0 0 1 5.18 5.178m-6.905-9.37v1.356a.762.762 0 0 1-.525.702 7.684 7.684 0 0 0-1.333.546.76.76 0 0 1-.87-.13l-.956-.956c-.105-.106-.24-.106-.347 0l-2.088 2.088a.24.24 0 0 0 0 .355l.956.955a.762.762 0 0 1 .131.871 7.547 7.547 0 0 0-.547 1.333.76.76 0 0 1-.709.523h-1.356c-.149 0-.247.098-.247.248v2.958c0 .15.098.247.247.247h1.356a.761.761 0 0 1 .71.516c.143.47.324.923.546 1.341a.76.76 0 0 1-.13.863l-.957.955a.24.24 0 0 0 0 .355l2.088 2.088c.107.105.242.105.347 0l.956-.955a.758.758 0 0 1 .87-.13c.42.22.864.401 1.333.546a.76.76 0 0 1 .525.71v1.354c0 .15.096.247.246.247h2.96c.148 0 .246-.097.246-.247v-1.355a.758.758 0 0 1 .523-.709 7.67 7.67 0 0 0 1.325-.547.76.76 0 0 1 .872.131l.955.955c.106.105.241.105.347 0l2.096-2.088a.24.24 0 0 0 0-.355l-.964-.963a.762.762 0 0 1-.13-.863c.225-.425.413-.875.554-1.333a.76.76 0 0 1 .71-.516h1.355c.15 0 .246-.097.246-.247v-2.958c0-.15-.096-.248-.246-.248h-1.356a.76.76 0 0 1-.709-.523 7.564 7.564 0 0 0-.555-1.325.76.76 0 0 1 .131-.87l.964-.964a.24.24 0 0 0 0-.355l-2.096-2.08v-.008c-.106-.106-.24-.106-.347 0l-.955.956a.762.762 0 0 1-.872.13 7.589 7.589 0 0 0-1.325-.546.761.761 0 0 1-.523-.702v-1.356c0-.15-.098-.246-.247-.246h-2.959c-.15 0-.246.096-.246.246m.246-1.726h2.96a1.74 1.74 0 0 1 1.725 1.726v.863c.182.07.363.144.54.224l.608-.609a1.74 1.74 0 0 1 2.443 0l2.096 2.088a1.732 1.732 0 0 1 0 2.435l-.616.616c.082.18.16.36.23.548h.863c.944 0 1.726.782 1.726 1.726v2.958c0 .944-.782 1.726-1.726 1.726h-.863a8.93 8.93 0 0 1-.23.54l.616.616a1.732 1.732 0 0 1 0 2.435v.008l-2.096 2.08h-.008a1.736 1.736 0 0 1-2.435 0l-.609-.609c-.176.08-.356.156-.539.224v.87A1.74 1.74 0 0 1 293.508 37h-2.959a1.739 1.739 0 0 1-1.726-1.727v-.87a9.23 9.23 0 0 1-.547-.224l-.609.61a1.74 1.74 0 0 1-2.442 0l-2.088-2.089a1.732 1.732 0 0 1 0-2.435l.608-.609c-.08-.18-.154-.362-.224-.547h-.862a1.739 1.739 0 0 1-1.726-1.726v-2.958c0-.944.783-1.726 1.726-1.726h.862c.071-.189.142-.372.224-.556l-.608-.608a1.732 1.732 0 0 1 0-2.435l2.088-2.089a1.74 1.74 0 0 1 2.442 0l.61.61a9.23 9.23 0 0 1 .546-.224v-.863c0-.943.782-1.726 1.726-1.726"/>
        <mask id="b" fill="#fff">
            <use xlink:href="#a"/>
        </mask>
        <path fill="#BABABA" d="M91.006 34.041h3.698v-6.657h-3.698v6.657zm4.438-8.137h-5.178c-.444 0-.74.296-.74.74v8.137c0 .443.296.74.74.74h5.178c.444 0 .74-.297.74-.74v-8.138c0-.443-.296-.739-.74-.739zM100.622 34.041h3.698V21.466h-3.698v12.575zm4.439-14.055h-5.179c-.444 0-.739.296-.739.74v14.055c0 .443.295.74.739.74h5.179c.443 0 .739-.297.739-.74V20.726c0-.444-.296-.74-.739-.74zM110.239 34.041h3.698V15.548h-3.698v18.493zm4.438-19.973h-5.179c-.443 0-.739.296-.739.74v19.973c0 .443.296.74.739.74h5.179c.443 0 .739-.297.739-.74V14.808c0-.444-.296-.74-.739-.74zM119.855 34.041h3.698V9.631h-3.698v24.41zm4.438-25.89h-5.178c-.444 0-.74.296-.74.74v25.89c0 .443.296.74.74.74h5.178c.443 0 .739-.297.739-.74V8.891c0-.444-.296-.74-.739-.74zM116.008 1.789L109.572.015c-.37-.075-.813.147-.887.517-.073.369.148.814.517.888l4.735 1.331-24.04 13.833c-.37.222-.445.666-.296 1.035.296.444.592.519 1.035.296l24.04-13.906-1.257 4.734c-.074.369.149.814.518.888.444.073.74-.149.887-.519l1.702-6.435c.074-.518-.074-.74-.518-.888M149.813 25.657a2.828 2.828 0 0 0-2.835 2.836 2.827 2.827 0 0 0 2.834 2.836 2.827 2.827 0 0 0 2.837-2.836 2.828 2.828 0 0 0-2.837-2.836zm0-1.134a3.979 3.979 0 0 1 3.97 3.97 3.98 3.98 0 0 1-3.97 3.97 3.98 3.98 0 0 1-3.97-3.97 3.978 3.978 0 0 1 3.97-3.97zm1.135-3.402h-2.27c-.113 0-.189.074-.189.188v1.04a.58.58 0 0 1-.401.537 5.87 5.87 0 0 0-1.016.42.582.582 0 0 1-.667-.1l-.733-.733c-.082-.08-.184-.08-.266 0v.006l-1.608 1.595c-.08.081-.08.191 0 .271l.74.74c.17.17.212.454.1.667a5.82 5.82 0 0 0-.425 1.016.584.584 0 0 1-.544.402h-1.04c-.114 0-.189.074-.189.19v2.267c0 .115.075.19.19.19h1.038a.58.58 0 0 1 .544.395c.109.351.252.696.425 1.022a.58.58 0 0 1-.099.661l-.74.74c-.08.081-.08.19 0 .271l1.608 1.601c.082.081.184.081.266 0l.733-.733a.582.582 0 0 1 .667-.1c.32.171.659.31 1.016.42a.58.58 0 0 1 .401.542v1.041c0 .114.076.188.19.188h2.268c.114 0 .19-.074.19-.188v-1.04a.58.58 0 0 1 .401-.543c.36-.112.701-.249 1.022-.42a.582.582 0 0 1 .667.1l.732.733c.083.081.185.081.267 0l1.601-1.6c.082-.082.082-.19 0-.272l-.733-.734a.58.58 0 0 1-.1-.66c.17-.32.309-.669.42-1.029a.582.582 0 0 1 .544-.396h1.038c.115 0 .19-.074.19-.189V27.36c0-.115-.075-.189-.19-.189h-1.038a.584.584 0 0 1-.544-.402 5.842 5.842 0 0 0-.42-1.022.582.582 0 0 1 .1-.667l.733-.734c.082-.08.082-.19 0-.27l-1.601-1.602c-.082-.08-.184-.08-.267 0l-.732.733a.582.582 0 0 1-.667.1 5.913 5.913 0 0 0-1.022-.42.58.58 0 0 1-.401-.537v-1.04c0-.114-.076-.188-.19-.188zm0-1.135c.722 0 1.322.601 1.322 1.323v.662c.142.053.281.11.42.171l.466-.466a1.336 1.336 0 0 1 1.874 0l1.6 1.601a1.325 1.325 0 0 1 0 1.866l-.466.467c.063.14.118.281.17.426h.662c.724 0 1.323.6 1.323 1.323v2.268c0 .723-.6 1.323-1.322 1.323h-.663a6.367 6.367 0 0 1-.17.42l.466.467a1.325 1.325 0 0 1 0 1.866l-1.6 1.601a1.336 1.336 0 0 1-1.874 0l-.466-.466a7.656 7.656 0 0 1-.42.171v.668c0 .722-.6 1.323-1.323 1.323h-2.268a1.334 1.334 0 0 1-1.323-1.323v-.668a6.767 6.767 0 0 1-.413-.17l-.468.465a1.332 1.332 0 0 1-1.867 0h-.006l-1.606-1.595v-.006a1.325 1.325 0 0 1 0-1.866l.472-.473a6.573 6.573 0 0 1-.176-.413h-.662a1.334 1.334 0 0 1-1.323-1.323V27.36c0-.723.6-1.323 1.323-1.323h.662a6.52 6.52 0 0 1 .177-.42l-.472-.473a1.325 1.325 0 0 1 0-1.866l1.605-1.6a1.336 1.336 0 0 1 1.874 0l.466.465c.136-.06.273-.119.413-.17v-.663c0-.722.6-1.323 1.324-1.323h2.268zM364.056 35.04h1.877v-3.378h-1.877v3.378zm-.751-3.753v4.13c0 .223.15.374.376.374h2.627c.225 0 .375-.15.375-.375v-4.129c0-.226-.15-.375-.375-.375h-2.627c-.226 0-.376.15-.376.375zM359.176 35.04h1.877v-6.38h-1.877v6.38zm-.75-6.756v7.132c0 .224.149.375.375.375h2.627c.225 0 .376-.15.376-.375v-7.132c0-.226-.151-.375-.376-.375h-2.627c-.226 0-.375.15-.375.375zM354.297 35.04h1.876v-9.383h-1.876v9.383zm-.751-9.759v10.135c0 .224.15.375.375.375h2.628a.355.355 0 0 0 .375-.375V25.281c0-.225-.151-.375-.375-.375h-2.628c-.225 0-.375.15-.375.375zM349.417 35.04h1.877V22.654h-1.877V35.04zm-.751-12.762v13.138c0 .224.15.375.376.375h2.627c.226 0 .375-.15.375-.375V22.278c0-.225-.149-.375-.375-.375h-2.627c-.226 0-.376.15-.376.375zM352.982 19.126l.863 3.266c.075.187.226.299.451.262.188-.038.3-.262.263-.45l-.639-2.402 12.2 7.056c.224.113.375.075.525-.15.075-.187.037-.413-.15-.525l-12.199-7.02 2.402-.676c.188-.037.301-.262.263-.45-.038-.187-.263-.3-.45-.263l-3.266.902c-.225.074-.3.187-.263.45M387.25 19.584v-3.465a.551.551 0 0 0-1.1 0v3.465a.551.551 0 0 0 1.1 0M390.825 20.794v-3.492a.552.552 0 0 0-1.101 0v3.492a.552.552 0 0 0 1.101 0M383.675 20.794v-3.492a.551.551 0 0 0-1.1 0v3.492a.551.551 0 0 0 1.1 0M380.128 27.477V24.56H393.3v2.916c0 3.63-2.943 6.6-6.6 6.6-3.657 0-6.572-2.97-6.572-6.6zm15.757-.386a1.596 1.596 0 0 1 0 3.19h-2.035c.357-.88.549-1.842.549-2.831v-.386h1.486v.027zM379 34.6c0 .303.248.55.55.55h14.107a.551.551 0 0 0 0-1.1h-2.997c1.072-.66 2.007-1.568 2.64-2.668h2.585a2.699 2.699 0 0 0 2.694-2.695 2.7 2.7 0 0 0-2.694-2.695h-1.486v-1.98a.55.55 0 0 0-.55-.55h-14.271a.552.552 0 0 0-.551.55v3.466a7.659 7.659 0 0 0 3.74 6.6h-3.217a.512.512 0 0 0-.55.522z" mask="url(#b)"/>
        <path stroke="#E8E8E8" stroke-linecap="round" stroke-width="3" d="M484.89 36.007h17.5M457.5 35.605h22.572M508.139 36.07h26.292M540.687 36.07h47.004M593.946 36.26h24.812" mask="url(#b)"/>
        <path fill="#BABABA" d="M467.475 19.584v-3.465a.552.552 0 0 0-1.101 0v3.465a.552.552 0 0 0 1.1 0M471.049 20.794v-3.492a.551.551 0 0 0-1.1 0v3.492a.551.551 0 0 0 1.1 0M463.9 20.794v-3.492a.551.551 0 0 0-1.1 0v3.492a.551.551 0 0 0 1.1 0M460.352 27.477V24.56h13.173v2.916c0 3.63-2.943 6.6-6.601 6.6-3.657 0-6.572-2.97-6.572-6.6zm15.758-.386a1.596 1.596 0 0 1 0 3.19h-2.035c.357-.88.549-1.842.549-2.831v-.386h1.486v.027zM459.225 34.6c0 .303.247.55.55.55h14.107c.302 0 .55-.248.55-.55a.552.552 0 0 0-.55-.55h-2.998c1.073-.66 2.008-1.568 2.64-2.668h2.586a2.699 2.699 0 0 0 2.694-2.695 2.7 2.7 0 0 0-2.694-2.695h-1.486v-1.98a.55.55 0 0 0-.55-.55h-14.272a.552.552 0 0 0-.55.55v3.466a7.659 7.659 0 0 0 3.74 6.6h-3.217a.511.511 0 0 0-.55.522zM487.955 28.305c-.569.025-.73.61-.47 1 1.153 1.726 3.084 2.87 5.268 2.87 2.182 0 4.115-1.144 5.267-2.87a.666.666 0 0 0-.174-.893c-.282-.188-.712-.107-.9.175-.93 1.393-2.459 2.298-4.193 2.298-1.735 0-3.262-.905-4.194-2.298-.174-.205-.397-.295-.604-.282m8.453-6.021a1.29 1.29 0 1 0 0 2.58 1.29 1.29 0 0 0 0-2.58m-7.31 0a1.29 1.29 0 1 0 0 2.58 1.29 1.29 0 0 0 0-2.58m3.655-4.515a8.59 8.59 0 0 1 8.6 8.6 8.59 8.59 0 0 1-8.6 8.6 8.592 8.592 0 0 1-8.602-8.6c0-4.757 3.844-8.6 8.602-8.6m0-1.29c-5.455 0-9.892 4.435-9.892 9.89 0 5.456 4.437 9.89 9.892 9.89 5.455 0 9.89-4.434 9.89-9.89 0-5.455-4.435-9.89-9.89-9.89M510.731 33.687c.124.562.624.963 1.2.96h17.39a1.23 1.23 0 0 0 .531-2.339l-.626-.285a.714.714 0 0 1-.402-.663v-2.479a14.812 14.812 0 0 0-5.074-11.11h-6.237a14.8 14.8 0 0 0-5.068 11.113v2.48a.713.713 0 0 1-.406.641l-.625.286c-.53.245-.813.83-.677 1.396h-.006zm.286-4.806a16.23 16.23 0 0 1 5.771-12.37.718.718 0 0 1 .46-.168h6.764c.168 0 .331.06.46.168a16.23 16.23 0 0 1 5.774 12.37v2.031l.22.105a2.658 2.658 0 0 1-1.142 5.058h-17.388a2.659 2.659 0 0 1-1.142-5.058l.22-.105.003-2.03zm11.93-13.903a.714.714 0 0 0 .985-.18l2.46-3.5a.717.717 0 0 0-.133-.963c-3.158-2.622-8.103-2.619-11.258.008a.714.714 0 0 0-.129.96l2.46 3.495a.713.713 0 0 0 1.167-.819l-2.063-2.933a7.629 7.629 0 0 1 8.39 0l-2.062 2.94a.715.715 0 0 0 .175.992h.008zm-5.14 9.798a2.612 2.612 0 0 1 2.111-2.57v-.554a.713.713 0 1 1 1.427 0v.57c.853.22 1.553.825 1.894 1.637a.715.715 0 0 1-1.317.551 1.393 1.393 0 0 0-1.288-.857c-.674 0-1.396.383-1.396 1.223 0 .22 0 .882 1.556 1.24h.023c2.284.532 2.642 1.872 2.642 2.623a2.613 2.613 0 0 1-2.11 2.57v.571a.714.714 0 1 1-1.429 0v-.572a2.811 2.811 0 0 1-1.893-1.635.714.714 0 1 1 1.316-.55c.218.518.728.856 1.291.855.674 0 1.397-.382 1.397-1.222 0-.22 0-.882-1.557-1.24h-.022c-2.302-.547-2.645-1.887-2.645-2.64zM547.006 34.041h3.698v-6.657h-3.698v6.657zm4.438-8.137h-5.178c-.444 0-.74.296-.74.74v8.137c0 .443.296.74.74.74h5.178c.444 0 .74-.297.74-.74v-8.138c0-.443-.296-.739-.74-.739zM556.622 34.041h3.698V21.466h-3.698v12.575zm4.439-14.055h-5.179c-.444 0-.739.296-.739.74v14.055c0 .443.295.74.739.74h5.179c.443 0 .739-.297.739-.74V20.726c0-.444-.296-.74-.739-.74zM566.239 34.041h3.698V15.548h-3.698v18.493zm4.438-19.973h-5.179c-.443 0-.739.296-.739.74v19.973c0 .443.296.74.739.74h5.179c.443 0 .739-.297.739-.74V14.808c0-.444-.296-.74-.739-.74zM575.855 34.041h3.698V9.631h-3.698v24.41zm4.438-25.89h-5.178c-.444 0-.74.296-.74.74v25.89c0 .443.296.74.74.74h5.178c.443 0 .739-.297.739-.74V8.891c0-.444-.296-.74-.739-.74zM572.008 1.789L565.572.015c-.37-.075-.813.147-.887.517-.073.369.148.814.517.888l4.735 1.331-24.04 13.833c-.37.222-.445.666-.296 1.035.296.444.592.519 1.035.296l24.04-13.906-1.257 4.734c-.074.369.149.814.518.888.444.073.74-.149.887-.519l1.702-6.435c.074-.518-.074-.74-.518-.888M605.813 25.657a2.828 2.828 0 0 0-2.836 2.836 2.827 2.827 0 0 0 2.836 2.836 2.827 2.827 0 0 0 2.836-2.836 2.828 2.828 0 0 0-2.837-2.836zm0-1.134a3.979 3.979 0 0 1 3.97 3.97 3.98 3.98 0 0 1-3.97 3.97 3.98 3.98 0 0 1-3.97-3.97 3.978 3.978 0 0 1 3.97-3.97zm1.135-3.402h-2.27c-.114 0-.188.074-.188.188v1.04a.58.58 0 0 1-.403.537 5.87 5.87 0 0 0-1.014.42.582.582 0 0 1-.668-.1l-.733-.733c-.082-.08-.185-.08-.265 0v.006l-1.609 1.595c-.08.081-.08.191 0 .271l.74.74c.17.17.212.454.1.667a5.82 5.82 0 0 0-.426 1.016.584.584 0 0 1-.543.402h-1.04c-.115 0-.188.074-.188.19v2.267c0 .115.073.19.188.19h1.04a.58.58 0 0 1 .543.395c.109.351.253.696.426 1.022a.58.58 0 0 1-.1.661l-.74.74c-.08.081-.08.19 0 .271l1.609 1.601c.08.081.183.081.264 0l.733-.733a.582.582 0 0 1 .668-.1c.32.171.659.31 1.015.42a.58.58 0 0 1 .403.542v1.041c0 .114.074.188.188.188h2.27c.114 0 .188-.074.188-.188v-1.04a.58.58 0 0 1 .403-.543c.36-.112.7-.249 1.02-.42a.582.582 0 0 1 .668.1l.733.733c.082.081.184.081.265 0l1.602-1.6c.082-.082.082-.19 0-.272l-.734-.734a.58.58 0 0 1-.098-.66c.17-.32.308-.669.418-1.029a.582.582 0 0 1 .544-.396h1.04c.115 0 .189-.074.189-.189V27.36c0-.115-.075-.189-.19-.189h-1.038a.584.584 0 0 1-.544-.402 5.842 5.842 0 0 0-.42-1.022.582.582 0 0 1 .1-.667l.733-.734c.082-.08.082-.19 0-.27l-1.601-1.602c-.082-.08-.184-.08-.266 0l-.733.733a.582.582 0 0 1-.668.1 5.913 5.913 0 0 0-1.02-.42.58.58 0 0 1-.403-.537v-1.04c0-.114-.074-.188-.188-.188zm0-1.135c.722 0 1.322.601 1.322 1.323v.662c.143.053.282.11.42.171l.466-.466a1.336 1.336 0 0 1 1.874 0l1.6 1.601a1.325 1.325 0 0 1 0 1.866l-.466.467c.063.14.118.281.17.426h.663c.723 0 1.322.6 1.322 1.323v2.268c0 .723-.6 1.323-1.322 1.323h-.662a6.367 6.367 0 0 1-.172.42l.466.467a1.325 1.325 0 0 1 0 1.866l-1.6 1.601a1.336 1.336 0 0 1-1.872 0l-.468-.466a7.656 7.656 0 0 1-.418.171v.668c0 .722-.6 1.323-1.323 1.323h-2.27a1.334 1.334 0 0 1-1.322-1.323v-.668a6.767 6.767 0 0 1-.413-.17l-.467.465a1.332 1.332 0 0 1-1.867 0h-.007l-1.606-1.595v-.006a1.325 1.325 0 0 1 0-1.866l.472-.473c-.061-.136-.123-.272-.176-.413h-.663a1.334 1.334 0 0 1-1.322-1.323V27.36c0-.723.6-1.323 1.322-1.323h.663a6.52 6.52 0 0 1 .176-.42l-.471-.473a1.325 1.325 0 0 1 0-1.866l1.606-1.6a1.336 1.336 0 0 1 1.873 0l.466.465c.136-.06.274-.119.413-.17v-.663c0-.722.6-1.323 1.323-1.323h2.27z" mask="url(#b)"/>
    </g>
</svg>
