<svg xmlns="http://www.w3.org/2000/svg" width="54" height="54" viewBox="0 0 54 54">
    <g fill="none" fill-rule="evenodd">
        <circle cx="27" cy="27" r="27" fill="#000" fill-opacity=".54"/>
        <path fill="#FFF" fill-rule="nonzero" d="M20 35.523c0 1.101.451 1.994 1.237 2.447.354.203.755.308 1.162.305.51 0 1.05-.153 1.577-.457l14.523-8.385c.954-.55 1.501-1.388 1.501-2.295 0-.908-.547-1.745-1.5-2.296l-14.524-8.385c-.955-.55-1.953-.606-2.739-.152-.786.453-1.237 1.346-1.237 2.447v16.77zm2.337-16.77c0-.234.043-.366.073-.418.059 0 .196.03.397.145l14.524 8.386c.201.117.294.221.324.272-.03.05-.123.155-.324.271l-14.524 8.386c-.201.116-.338.143-.397.145-.028-.052-.073-.184-.073-.417v-16.77z"/>
    </g>
</svg>
